<svg version="1.2" xmlns="http://www.w3.org/2000/svg" viewBox="0 0 700 140" width="700" height="140">
	<title>unee-logo</title>
	<style>
		.s0 { fill: #b607c1 } 
		.s1 { fill: #10afc7 } 
	</style>
	<path id="uneecss" class="s0" aria-label="uneecss"  d="m57.6 117.2q-13.3 0-23.2-5.3-9.9-5.4-15.3-14.7-5.4-9.4-5.4-21.1v-52.9h20.7v52.7q0 7.1 3.1 12.5 3.2 5.2 8.4 8.2 5.4 2.9 11.7 2.9 6.3 0 11.6-2.9 5.4-3 8.4-8.2 3.3-5.4 3.3-12.5v-52.7h20.7v52.9q0 11.7-5.4 21.1-5.4 9.3-15.3 14.7-9.9 5.3-23.3 5.3zm89.5-2.2h-20.7v-52.9q0-11.9 5.4-21.1 5.4-9.3 15.3-14.6 9.9-5.4 23.2-5.4 13.3 0 23.1 5.4 9.9 5.3 15.3 14.6 5.4 9.2 5.4 21.1v52.9h-20.6v-52.7q0-7.1-3.2-12.3-3.2-5.4-8.6-8.3-5.3-3-11.6-3-6.1 0-11.5 3-5.2 2.9-8.4 8.3-3.1 5.2-3.1 12.3zm162.9 0h-24.7q-15.4 0-27.1-5.8-11.6-5.9-18-16.2-6.5-10.4-6.5-23.9 0-14.3 5.7-25.1 5.8-10.8 15.9-16.9 10.1-6.1 23.2-6.1 14.8 0 24.3 6.3 9.5 6.3 14 16.9 4.7 10.6 4.7 23.8 0 1.8-0.2 4.1-0.1 2.4-0.5 3.6h-65.2q1.1 7.2 5.3 12.1 4.1 4.7 10.4 7.2 6.3 2.3 14 2.3h24.7zm-54.5-53.3h45.3q-0.2-3.4-1.1-6.8-0.7-3.4-2.5-6.5-1.6-3-4.3-5.2-2.5-2.3-6.1-3.6-3.6-1.4-8.3-1.4-5.4 0-9.5 2.1-4.2 2-7.1 5.4-2.8 3.3-4.5 7.6-1.4 4.1-1.9 8.4zm156.4 53.3h-24.7q-15.5 0-27.2-5.7-11.5-6-18-16.2-6.4-10.5-6.4-24 0-14.2 5.7-25 5.8-10.8 15.9-16.9 10-6.1 23.2-6.1 14.7 0 24.3 6.3 9.5 6.3 14 16.9 4.7 10.6 4.7 23.7 0 1.8-0.2 4.2-0.2 2.3-0.5 3.6h-65.2q1.1 7.2 5.2 12 4.2 4.7 10.5 7.2 6.3 2.4 14 2.4h24.7zm-54.6-53.3h45.4q-0.2-3.4-1.1-6.8-0.7-3.5-2.5-6.5-1.6-3.1-4.3-5.2-2.5-2.4-6.1-3.6-3.6-1.5-8.3-1.5-5.4 0-9.6 2.2-4.1 2-7 5.4-2.9 3.2-4.5 7.5-1.4 4.2-2 8.5z"/>
	<path id="uneecss" class="s1" aria-label="uneecss"  d="m498.1 115h-11.2q-14.2 0-25.3-6.1-11.2-6.1-17.7-16.4-6.5-10.4-6.5-23.4 0-13 6.5-23.2 6.5-10.5 17.7-16.6 11.1-6.1 25.3-6.1h11.2v17.6h-11.5q-8.3 0-14.8 3.8-6.3 3.6-9.9 10.1-3.6 6.5-3.6 14.4 0 7.9 3.6 14.4 3.6 6.5 9.9 10.3 6.5 3.6 14.8 3.6h11.5zm64.1 0h-46.5v-17.7h44.3q3.3 0 5.6-1.4 2.5-1.5 3.8-3.8 1.4-2.3 1.4-4.9 0-2.8-1.2-5-1.3-2.2-3.6-3.4-2.4-1.5-5.4-1.5h-18q-8.9 0-15.7-2.8-6.8-2.9-10.8-8.9-4-6.1-4-15.3 0-7.3 3.6-13.5 3.8-6.1 10.1-9.9 6.3-3.7 14.2-3.7h42.7v17.6h-40.7q-4.1 0-6.8 2.7-2.7 2.5-2.7 6.3 0 3.6 2.7 6.3 2.7 2.7 7.2 2.7h17.4q9.9 0 17 3.1 7 3 10.6 9.1 3.8 6.2 3.8 15.5 0 7.6-3.8 14.2-3.8 6.5-10.5 10.5-6.4 3.8-14.7 3.8zm95.6 0h-46.5v-17.7h44.3q3.2 0 5.6-1.4 2.5-1.5 3.8-3.8 1.4-2.3 1.4-4.9 0-2.8-1.3-5-1.2-2.2-3.6-3.4-2.3-1.5-5.4-1.5h-18q-8.8 0-15.6-2.8-6.9-2.9-10.8-8.9-4-6.1-4-15.3 0-7.3 3.6-13.5 3.8-6.1 10.1-9.9 6.3-3.7 14.2-3.7h42.7v17.6h-40.7q-4.1 0-6.8 2.7-2.7 2.5-2.7 6.3 0 3.6 2.7 6.3 2.7 2.7 7.2 2.7h17.4q9.9 0 16.9 3.1 7.1 3 10.7 9.1 3.7 6.2 3.7 15.5 0 7.6-3.7 14.2-3.8 6.5-10.5 10.5-6.5 3.8-14.7 3.8z"/>
</svg>